<svg xmlns="http://www.w3.org/2000/svg" xmlns:xlink="http://www.w3.org/1999/xlink" fill="none" version="1.1" width="1600" height="1600" viewBox="0 0 1600 1600"><defs><clipPath id="master_svg0_47_1"><rect x="0" y="0" width="1600" height="1600" rx="100"/></clipPath></defs><g clip-path="url(#master_svg0_47_1)"><rect x="0" y="0" width="1600" height="1600" rx="100" fill="#030303" fill-opacity="1"/><g><path d="M815.462,648L759.45,655L759.45,792.2Q759.45,813.544,767.714,833.079Q775.688,851.927,790.21,866.446Q804.732,880.965,823.584,888.937Q843.125,897.2,864.473,897.2L864.473,841.2Q854.483,841.2,845.404,837.361Q836.614,833.644,829.817,826.848Q823.02,820.053,819.302,811.264Q815.462,802.188,815.462,792.2L815.462,743.2L864.473,743.2L864.473,687.2L815.462,687.2L815.462,648ZM374.543,876.2L426.055,777.412L434.65,896.4159999999999L490.517,892.384L474.637,672.5L417.594,672.5L351.25800000000004,799.715L284.9229,672.5L227.8795,672.5L211.999898506,892.384L267.867,896.4159999999999L276.4613,777.412L327.974,876.2L374.543,876.2ZM579.9300000000001,891.737Q599.47,900,620.819,900Q646.44,900,669.883,890.087Q692.35,880.586,709.696,863.333L664.837,828.451Q657.207,834.644,648.063,838.511Q635.082,844,620.819,844Q610.829,844,601.75,840.1610000000001Q592.9590000000001,836.444,586.163,829.648Q579.366,822.8530000000001,575.648,814.064Q575.172,812.939,574.755,811.8L725.842,811.8L725.842,778.2Q725.842,756.733,717.462,737.4886Q709.371,718.9098,694.565,704.8504Q680.019,691.0382,661.0740000000001,683.5668000000001Q641.887,676,620.819,676Q599.75,676,580.563,683.5668000000001Q561.6179999999999,691.0383,547.072,704.8504Q532.2660000000001,718.9098,524.1759999999999,737.4886Q515.7950000000001,756.733,515.7950000000001,778.2L515.7950000000001,795Q515.7950000000001,816.344,524.06,835.879Q532.034,854.727,546.556,869.246Q561.078,883.765,579.9300000000001,891.737ZM1081.521,687.2L991.901,687.2Q970.553,687.2,951.013,695.4629Q932.161,703.435,917.639,717.9538Q903.117,732.4726,895.143,751.321Q886.878,770.856,886.878,792.2Q886.878,813.544,895.143,833.079Q903.117,851.927,917.639,866.446Q932.161,880.965,951.013,888.937Q970.553,897.2,991.901,897.2L1081.521,897.2L1081.521,687.2ZM1238.36,687.2L1327.98,687.2Q1349.32,687.2,1368.86,695.4629Q1387.72,703.435,1402.24,717.9538Q1416.76,732.4726,1424.74,751.321Q1433,770.856,1433,792.2Q1433,813.544,1424.74,833.079Q1416.76,851.927,1402.24,866.446Q1387.72,880.965,1368.86,888.937Q1349.32,897.2,1327.98,897.2L1238.36,897.2L1238.36,687.2ZM1127.732,688.6L1192.146,688.6L1192.146,895.8L1127.732,895.8L1127.732,688.6ZM666.105,759.843Q666.442,760.616,666.748,761.4L574.889,761.4Q575.1949999999999,760.616,575.5319999999999,759.843Q579.0840000000001,751.686,585.646,745.4552Q592.299,739.138,601.117,735.6603Q610.398,732,620.819,732Q631.239,732,640.52,735.6603Q649.338,739.138,655.991,745.4552Q662.553,751.686,666.105,759.843ZM991.901,841.2L1025.509,841.2L1025.509,743.2L991.901,743.2Q981.912,743.2,972.833,747.0391999999999Q964.042,750.756,957.245,757.552Q950.448,764.347,946.73,773.136Q942.891,782.212,942.891,792.2Q942.891,802.188,946.73,811.264Q950.448,820.053,957.245,826.848Q964.042,833.644,972.833,837.361Q981.912,841.2,991.901,841.2ZM1327.98,841.2L1294.37,841.2L1294.37,743.2L1327.98,743.2Q1337.97,743.2,1347.05,747.0391999999999Q1355.84,750.756,1362.63,757.552Q1369.43,764.347,1373.15,773.136Q1376.99,782.212,1376.99,792.2Q1376.99,802.188,1373.15,811.264Q1369.43,820.053,1362.63,826.848Q1355.84,833.644,1347.05,837.361Q1337.97,841.2,1327.98,841.2Z" fill-rule="evenodd" fill="#FFFFFF" fill-opacity="1"/></g></g></svg>