<svg xmlns="http://www.w3.org/2000/svg" xmlns:xlink="http://www.w3.org/1999/xlink" fill="none" version="1.1" width="60" height="60" viewBox="0 0 60 60"><g><g></g><g><g><path d="M22,10C22,10,22,20,22,20C22,21.104599999999998,21.104599999999998,22,20,22C20,22,10,22,10,22C8.89543,22,8,21.104599999999998,8,20C8,20,8,10,8,10C8,8.89543,8.89543,8,10,8C10,8,20,8,20,8C21.104599999999998,8,22,8.89543,22,10Z" fill-rule="evenodd" fill="#E9983D" fill-opacity="1"/></g><g><path d="M22,25C22,25,22,35,22,35C22,36.1046,21.104599999999998,37,20,37C20,37,10,37,10,37C8.89543,37,8,36.1046,8,35C8,35,8,25,8,25C8,23.89543,8.89543,23,10,23C10,23,20,23,20,23C21.104599999999998,23,22,23.89543,22,25Z" fill-rule="evenodd" fill="#E9983D" fill-opacity="1"/></g><g><path d="M22,40C22,40,22,50,22,50C22,51.1046,21.104599999999998,52,20,52C20,52,10,52,10,52C8.89543,52,8,51.1046,8,50C8,50,8,40,8,40C8,38.89543,8.89543,38,10,38C10,38,20,38,20,38C21.104599999999998,38,22,38.89543,22,40Z" fill-rule="evenodd" fill="#E9983D" fill-opacity="1"/></g><g><path d="M37,10C37,10,37,20,37,20C37,21.104599999999998,36.1046,22,35,22C35,22,25,22,25,22C23.89543,22,23,21.104599999999998,23,20C23,20,23,10,23,10C23,8.89543,23.89543,8,25,8C25,8,35,8,35,8C36.1046,8,37,8.89543,37,10Z" fill-rule="evenodd" fill="#E9983D" fill-opacity="1"/></g><g><path d="M37,25C37,25,37,35,37,35C37,36.1046,36.1046,37,35,37C35,37,25,37,25,37C23.89543,37,23,36.1046,23,35C23,35,23,25,23,25C23,23.89543,23.89543,23,25,23C25,23,35,23,35,23C36.1046,23,37,23.89543,37,25Z" fill-rule="evenodd" fill="#E9983D" fill-opacity="1"/></g><g><path d="M37,40C37,40,37,50,37,50C37,51.1046,36.1046,52,35,52C35,52,25,52,25,52C23.89543,52,23,51.1046,23,50C23,50,23,40,23,40C23,38.89543,23.89543,38,25,38C25,38,35,38,35,38C36.1046,38,37,38.89543,37,40Z" fill-rule="evenodd" fill="#E9983D" fill-opacity="1"/></g><g><path d="M52,10C52,10,52,20,52,20C52,21.104599999999998,51.1046,22,50,22C50,22,40,22,40,22C38.89543,22,38,21.104599999999998,38,20C38,20,38,10,38,10C38,8.89543,38.89543,8,40,8C40,8,50,8,50,8C51.1046,8,52,8.89543,52,10Z" fill-rule="evenodd" fill="#E9983D" fill-opacity="1"/></g><g><path d="M52,25C52,25,52,35,52,35C52,36.1046,51.1046,37,50,37C50,37,40,37,40,37C38.89543,37,38,36.1046,38,35C38,35,38,25,38,25C38,23.89543,38.89543,23,40,23C40,23,50,23,50,23C51.1046,23,52,23.89543,52,25Z" fill-rule="evenodd" fill="#E9983D" fill-opacity="1"/></g><g><path d="M52,40C52,40,52,50,52,50C52,51.1046,51.1046,52,50,52C50,52,40,52,40,52C38.89543,52,38,51.1046,38,50C38,50,38,40,38,40C38,38.89543,38.89543,38,40,38C40,38,50,38,50,38C51.1046,38,52,38.89543,52,40Z" fill-rule="evenodd" fill="#E9983D" fill-opacity="1"/></g></g></g></svg>