<svg xmlns="http://www.w3.org/2000/svg" xmlns:xlink="http://www.w3.org/1999/xlink" fill="none" version="1.1" width="60" height="60" viewBox="0 0 60 60"><defs><clipPath id="master_svg0_266_1097"><rect x="4" y="4" width="52.000003814697266" height="52" rx="0"/></clipPath></defs><g><g></g><g clip-path="url(#master_svg0_266_1097)"><g><path d="M8.5350628828125,16.438499999999998C9.1067538828125,15.4512,10.3697698828125,15.1131,11.3582198828125,15.6828L30.1839298828125,26.5334L48.8237298828125,15.7937C49.8119298828125,15.2236,51.0752298828125,15.5618,51.6464298828125,16.5494C51.6552298828125,16.561799999999998,51.6620298828125,16.5753,51.6668298828125,16.5897C51.4861298828125,16.226100000000002,51.2013298828125,15.9244,50.8486298828125,15.7231L31.3153298828125,4.463784C30.9383298828125,4.158906,30.4668298828125,3.99494924,29.9819298828125,4.000118633C29.4972298828125,3.99504945,29.0259298828125,4.159,28.6490298828125,4.463784L9.3076948828125,15.6069C8.8167338828125,15.889,8.4640728828125,16.3613,8.3331298828125,16.912100000000002C8.3786296828125,16.7561,8.4440628828125,16.594900000000003,8.5350628828125,16.438499999999998Z" fill="#E9983D" fill-opacity="1"/></g><g><path d="M51.4210298828125,16.1334228515625C51.9020298828125,17.1699528515625,51.5562298828125,18.4495828515625,50.6098298828125,19.0380528515625L32.2877298828125,30.440722851562498L32.2877298828125,53.6023228515625C32.2877298828125,54.8230228515625,31.3716298828125,55.8167228515625,30.2350298828125,55.8167228515625C29.1031298828125,55.8167228515625,28.1819298828125,54.8282228515625,28.1819298828125,53.6023228515625L28.1819298828125,30.635722851562498L9.3592498828125,18.919312851562502C8.7634148828125,18.5466528515625,8.4024487828125,17.9044528515625,8.3426488928125,17.2132828515625L8.3426488928125,41.2983228515625C8.2676825828125,42.1351228515625,8.6381818828125,42.9775228515625,9.3592498828125,43.425522851562505L28.7578298828125,55.5029228515625C29.1219298828125,55.8260228515625,29.5926298828125,56.0030228515625,30.0794298828125,56.0000228515625C30.5664298828125,56.0031228515625,31.0373298828125,55.8261228515625,31.4015298828125,55.5029228515625L50.2294298828125,43.7817228515625C51.0605298828125,43.5009228515625,51.6663298828125,42.6642228515625,51.6663298828125,41.6710228515625L51.6663298828125,17.1807828515625C51.6663298828125,16.7972888515625,51.5762298828125,16.4410888515625,51.4210298828125,16.1334228515625Z" fill="#E9983D" fill-opacity="1"/></g></g></g></svg>