<svg xmlns="http://www.w3.org/2000/svg" xmlns:xlink="http://www.w3.org/1999/xlink" fill="none" version="1.1" width="60" height="60" viewBox="0 0 60 60"><defs><clipPath id="master_svg0_266_1102"><rect x="8" y="8" width="46" height="46" rx="0"/></clipPath></defs><g><g></g><g clip-path="url(#master_svg0_266_1102)"><g><path d="M52.5625,39.337451171875L9.4375,39.337451171875C8.575,39.337451171875,8,39.912451171875,8,40.774951171875L8,50.262451171875C8,51.124951171875,8.575,51.699951171875,9.4375,51.699951171875L52.275,51.699951171875C53.1375,51.699951171875,53.7125,51.124951171875,53.7125,50.262451171875L53.7125,40.774951171875C54,39.912451171875,53.425,39.337451171875,52.5625,39.337451171875ZM14.9,48.824951171875L12.3125,48.824951171875L12.3125,42.212451171875L14.9,42.212451171875L14.9,48.824951171875ZM20.65,48.824951171875L18.0625,48.824951171875L18.0625,42.212451171875L20.65,42.212451171875L20.65,48.824951171875ZM45.95,48.537451171875C44.225,48.537451171875,42.7875,47.099951171875,42.7875,45.374951171875C42.7875,43.649951171875,44.225,42.499951171875,45.95,42.499951171875C47.675,42.499951171875,49.1125,43.937451171875,49.1125,45.374951171875C49.1125,47.387451171875,47.675,48.537451171875,45.95,48.537451171875ZM52.5625,24.674951171875L9.4375,24.674951171875C8.575,24.674951171875,8,25.249951171875,8,26.112451171875L8,35.599951171875C8,36.462451171875,8.575,37.037451171875,9.4375,37.037451171875L52.275,37.037451171875C53.1375,37.037451171875,53.7125,36.462451171875,53.7125,35.599951171875L53.7125,26.112451171875C54,25.249951171875,53.425,24.674951171875,52.5625,24.674951171875ZM14.9,34.162451171875L12.3125,34.162451171875L12.3125,27.549951171875L14.9,27.549951171875L14.9,34.162451171875ZM20.65,34.162451171875L18.0625,34.162451171875L18.0625,27.549951171875L20.65,27.549951171875L20.65,34.162451171875ZM45.95,33.874951171875C44.225,33.874951171875,42.7875,32.437451171875,42.7875,30.712451171875C42.7875,28.987451171875,44.225,27.837451171875,45.95,27.837451171875C47.675,27.837451171875,49.1125,29.274951171875,49.1125,30.712451171875C49.1125,32.149951171875,47.675,33.874951171875,45.95,33.874951171875ZM52.5625,10.012451171875L9.4375,10.012451171875C8.575,10.012451171875,8,10.874951171875,8,11.737451171875L8,21.224951171875C8,22.087451171875,8.575,22.662451171875,9.4375,22.662451171875L52.275,22.662451171875C53.1375,22.662451171875,53.7125,22.087451171875,53.7125,21.224951171875L53.7125,11.449951171875C54,10.874951171875,53.425,10.012451171875,52.5625,10.012451171875ZM14.9,19.499951171875L12.3125,19.499951171875L12.3125,12.887451171875L14.9,12.887451171875L14.9,19.499951171875ZM20.65,19.499951171875L18.0625,19.499951171875L18.0625,12.887451171875L20.65,12.887451171875L20.65,19.499951171875ZM45.95,19.212451171875C44.225,19.212451171875,42.7875,17.774951171875,42.7875,16.049951171875C42.7875,14.324951171875,44.225,13.174951171875,45.95,13.174951171875C47.675,13.174951171875,49.1125,14.612451171875,49.1125,16.049951171875C49.1125,17.487451171875,47.675,19.212451171875,45.95,19.212451171875Z" fill="#E9983D" fill-opacity="1"/></g></g></g></svg>