<svg xmlns="http://www.w3.org/2000/svg" xmlns:xlink="http://www.w3.org/1999/xlink" fill="none" version="1.1" width="30" height="30" viewBox="0 0 30 30"><defs><clipPath id="master_svg0_137_7509"><rect x="2" y="2" width="26.000001907348633" height="26" rx="0"/></clipPath></defs><g><g></g><g clip-path="url(#master_svg0_137_7509)"><g><path d="M15,2C7.8203,1.999999686793,2,7.8203,2,15C2,22.1797,7.8203,28,15,28C22.1797,28,28,22.1797,28,15C28,7.8203,22.1797,1.999999686793,15,2ZM10.80031,19.5801L9.41,19.5801L9.41,9.05147L10.80305,9.05147L10.80305,19.5801L10.80031,19.5801ZM21.6806,16.383499999999998C21.4945,17.002000000000002,21.2537,17.5124,20.9622,17.9161C20.7025,18.2895,20.3781,18.6134,20.0043,18.8726C19.6567,19.1053,19.238,19.2804,18.7467,19.4008C18.2568,19.5199,17.6931,19.5787,17.0554,19.5787L13.2566,19.5787L13.2566,9.05284L16.8829,9.05284C17.7026,9.05284,18.3266,9.10347,18.7577,9.20337C19.3598,9.34295,19.8757,9.59473,20.3013,9.957370000000001C20.8568,10.42673,21.2728,11.0261,21.5465,11.75684C21.8229,12.4876,21.9598,13.3209,21.9598,14.2597C21.9598,15.0588,21.8667,15.7677,21.6806,16.3848L21.6806,16.383499999999998ZM18.6646,10.51158C18.291,10.36789,17.6903,10.29537,16.8624,10.29537L14.6497,10.29537L14.6497,18.3389L16.898,18.3389C17.5918,18.3389,18.1364,18.2746,18.5319,18.1446C18.926,18.016,19.2407,17.834,19.4761,17.598599999999998C19.8059,17.2688,20.0645,16.8241,20.2479,16.267200000000003C20.4313,15.7088,20.5243,15.0328,20.5243,14.2378C20.5243,13.1376,20.3437,12.2905,19.9824,11.69937C19.6212,11.10821,19.1819,10.71274,18.6646,10.51158Z" fill="#A5A5A5" fill-opacity="1"/></g></g></g></svg>