<svg xmlns="http://www.w3.org/2000/svg" xmlns:xlink="http://www.w3.org/1999/xlink" fill="none" version="1.1" width="14" height="14" viewBox="0 0 14 14"><g transform="matrix(0,-1,1,0,-14,14)"><g></g><g transform="matrix(0,1,-1,0,25.666666507720947,8.555555820465088)"><path d="M16.64568534362793,17.501545164093017Q16.73463534362793,17.430381164093017,16.78398534362793,17.327705164093018Q16.83333534362793,17.225030164093017,16.83333534362793,17.111111164093018Q16.83333534362793,17.061865464093017,16.823725343627927,17.013566064093016Q16.81411534362793,16.965266164093016,16.795275343627928,16.91976916409302Q16.776425343627928,16.874272164093018,16.74906534362793,16.833326164093016Q16.72170534362793,16.792380164093018,16.686885343627928,16.757558164093016Q16.652065343627932,16.722736164093018,16.61111534362793,16.695376164093016Q16.57017534362793,16.66801716409302,16.52467534362793,16.64917116409302Q16.47917534362793,16.630326164093017,16.430875343627932,16.620718164093017Q16.38257534362793,16.611111164093018,16.33333534362793,16.611111164093018Q16.15794534362793,16.611111164093018,16.020985343627927,16.72067716409302L16.02079534362793,16.720831164093017L13.09259534362793,19.06339116409302L11.46049534362793,17.757714164093017Q11.39400534362793,17.70452016409302,11.31365534362793,17.676334164093017Q11.23329534362793,17.64814816409302,11.14814534362793,17.64814816409302Q11.062995343627929,17.64814816409302,10.98264534362793,17.676334164093017Q10.90229534362793,17.70452016409302,10.835795343627929,17.757714164093017L8.24320734362793,19.83179116409302Q8.15425234362793,19.902951164093018,8.10490334362793,20.005631164093018Q8.05555534362793,20.108301164093017,8.05555534362793,20.222221164093018Q8.05555534362793,20.27147116409302,8.06516234362793,20.31977116409302Q8.074770343627929,20.368071164093017,8.09361534362793,20.413561164093018Q8.11246134362793,20.45906116409302,8.13982034362793,20.500011164093017Q8.16718034362793,20.540951164093016,8.20200234362793,20.575771164093016Q8.23682434362793,20.61060116409302,8.27777034362793,20.637961164093017Q8.31871634362793,20.66531116409302,8.36421334362793,20.684161164093016Q8.40971034362793,20.703011164093017,8.45801024362793,20.71261116409302Q8.50630964362793,20.722221164093018,8.55555534362793,20.722221164093018Q8.73094534362793,20.722221164093018,8.86790234362793,20.61266116409302L11.14814534362793,18.788461164093018L12.780245343627929,20.094141164093017Q12.84673534362793,20.147331164093018,12.92708534362793,20.175521164093016Q13.007435343627929,20.20370116409302,13.09259534362793,20.20370116409302Q13.17774534362793,20.20370116409302,13.258095343627929,20.175521164093016Q13.33844534362793,20.147331164093018,13.40493534362793,20.094141164093017L16.645485343627932,17.501700164093016L16.64568534362793,17.501545164093017L16.64568534362793,17.501545164093017Z" fill-rule="evenodd" fill="#A5A5A5" fill-opacity="1"/></g><g transform="matrix(0,1,-1,0,28.00000011920929,1.5555554628372192)"><path d="M25.166622328186037,20.999997791023254Q25.166622328186037,22.164507791023254,24.717222328186033,23.227197791023254Q24.677722328186036,23.320577791023254,24.677722328186036,23.421967791023256Q24.677722328186036,23.471217791023257,24.687322328186035,23.519517791023254Q24.696922328186034,23.567807791023256,24.715722328186033,23.613307791023253Q24.734622328186035,23.658807791023257,24.761922328186035,23.699757791023252Q24.789322328186035,23.740697791023255,24.824122328186036,23.775517791023255Q24.858922328186033,23.810347791023254,24.899922328186037,23.837707791023256Q24.940822328186037,23.865057791023254,24.986322328186034,23.883907791023255Q25.031822328186035,23.902757791023255,25.080122328186036,23.912357791023254Q25.128422328186033,23.921967791023256,25.177722328186036,23.921967791023256Q25.251422328186035,23.921967791023256,25.321922328186034,23.900707791023255Q25.392522328186033,23.879447791023253,25.453922328186035,23.838737791023256Q25.515322328186038,23.798017791023256,25.562422328186035,23.741317791023256Q25.609522328186035,23.684617791023257,25.638222328186036,23.616747791023254Q26.166622328186037,22.367297791023255,26.166622328186037,20.999997791023254Q26.166622328186037,18.215557791023254,24.197822328186035,16.246667791023256Q22.228882328186035,14.277777791023254,19.444442328186035,14.277777791023254Q16.660012328186035,14.277777791023254,14.691112328186035,16.246667791023256Q12.722222328186035,18.215567791023254,12.722222328186035,20.999997791023254Q12.722222328186035,23.784437791023255,14.691112328186035,25.753377791023254Q16.660002328186035,27.722177791023256,19.444442328186035,27.722177791023256Q22.228882328186035,27.722177791023256,24.197822328186035,25.753377791023254Q24.268122328186035,25.682977791023255,24.306122328186035,25.591077791023253Q24.344222328186035,25.499277791023253,24.344222328186035,25.399777791023254Q24.344222328186035,25.350577791023255,24.334622328186036,25.302277791023254Q24.325022328186037,25.253977791023253,24.306122328186035,25.208477791023256Q24.287322328186036,25.162977791023252,24.259922328186036,25.121977791023255Q24.232622328186036,25.081077791023255,24.197822328186035,25.046177791023254Q24.162922328186035,25.011377791023254,24.122022328186034,24.984077791023253Q24.081022328186037,24.956677791023253,24.035522328186033,24.937877791023254Q23.990022328186036,24.918977791023252,23.941722328186035,24.909377791023253Q23.893422328186034,24.899777791023254,23.844222328186035,24.899777791023254Q23.744722328186036,24.899777791023254,23.652922328186037,24.937877791023254Q23.561022328186034,24.975877791023255,23.490622328186035,25.046177791023254Q21.814662328186035,26.722177791023256,19.444442328186035,26.722177791023256Q17.074222328186035,26.722177791023256,15.398222328186035,25.046177791023254Q13.722222328186035,23.370217791023254,13.722222328186035,20.999997791023254Q13.722222328186035,18.629777791023255,15.398222328186035,16.953777791023256Q17.074222328186035,15.277777791023254,19.444442328186035,15.277777791023254Q21.814662328186035,15.277777791023254,23.490622328186035,16.953777791023256Q25.166622328186037,18.629777791023255,25.166622328186037,20.999997791023254Z" fill-rule="evenodd" fill="#A5A5A5" fill-opacity="1"/></g></g></svg>