<svg xmlns="http://www.w3.org/2000/svg" xmlns:xlink="http://www.w3.org/1999/xlink" fill="none" version="1.1" width="59.06451416015625" height="58.06451416015625" viewBox="0 0 59.06451416015625 58.06451416015625"><defs><clipPath id="master_svg0_266_1077"><rect x="0" y="0" width="58.06451416015625" height="58.06451416015625" rx="0"/></clipPath></defs><g><g></g><g clip-path="url(#master_svg0_266_1077)"><g><path d="M29.032214599609375,4.83868408203125C42.393714599609375,4.83868408203125,53.22581459960937,15.67078408203125,53.22581459960937,29.03228408203125C53.22581459960937,42.39368408203125,42.393714599609375,53.22578408203125,29.032214599609375,53.22578408203125C15.670814599609376,53.22578408203125,4.838714599609375,42.39368408203125,4.838714599609375,29.03228408203125C4.838714599609375,15.67078408203125,15.670814599609376,4.83868408203125,29.032214599609375,4.83868408203125ZM41.200414599609374,22.90888408203125C40.49081459960937,22.20148408203125,39.34221459960938,22.20308408203125,38.634714599609374,22.91248408203125L30.888514599609376,30.68038408203125L26.250614599609374,25.62758408203125C25.543614599609374,24.85708408203125,24.333314599609373,24.84218408203125,23.607414599609374,25.59498408203125L16.839314599609374,32.611084082031255C16.143514599609375,33.33228408203125,16.164114599609377,34.48098408203125,16.885314599609373,35.17678408203125C17.606514599609376,35.87258408203125,18.755214599609374,35.85198408203125,19.451014599609373,35.130784082031255L24.880614599609373,29.50218408203125L29.497414599609375,34.53198408203125C30.196314599609376,35.29378408203125,31.389414599609374,35.31858408203125,32.119314599609375,34.58648408203125L41.20401459960937,25.47458408203125C41.91141459960937,24.76498408203125,41.909814599609376,23.61638408203125,41.200414599609374,22.90888408203125Z" fill="#E9983D" fill-opacity="1"/></g></g></g></svg>