<svg xmlns="http://www.w3.org/2000/svg" xmlns:xlink="http://www.w3.org/1999/xlink" fill="none" version="1.1" width="30" height="30" viewBox="0 0 30 30"><g><g></g><g><g><path d="M11,5C11,5,11,10,11,10C11,10.55228,10.55228,11,10,11C10,11,5,11,5,11C4.447715,11,4,10.55228,4,10C4,10,4,5,4,5C4,4.447715,4.447715,4,5,4C5,4,10,4,10,4C10.55228,4,11,4.447715,11,5Z" fill-rule="evenodd" fill="#A5A5A5" fill-opacity="1"/></g><g><path d="M11,12.5C11,12.5,11,17.5,11,17.5C11,18.05228,10.55228,18.5,10,18.5C10,18.5,5,18.5,5,18.5C4.447715,18.5,4,18.05228,4,17.5C4,17.5,4,12.5,4,12.5C4,11.947715,4.447715,11.5,5,11.5C5,11.5,10,11.5,10,11.5C10.55228,11.5,11,11.947715,11,12.5Z" fill-rule="evenodd" fill="#A5A5A5" fill-opacity="1"/></g><g><path d="M11,20C11,20,11,25,11,25C11,25.55228,10.55228,26,10,26C10,26,5,26,5,26C4.447715,26,4,25.55228,4,25C4,25,4,20,4,20C4,19.447715,4.447715,19,5,19C5,19,10,19,10,19C10.55228,19,11,19.447715,11,20Z" fill-rule="evenodd" fill="#A5A5A5" fill-opacity="1"/></g><g><path d="M18.5,5C18.5,5,18.5,10,18.5,10C18.5,10.55228,18.05228,11,17.5,11C17.5,11,12.5,11,12.5,11C11.947715,11,11.5,10.55228,11.5,10C11.5,10,11.5,5,11.5,5C11.5,4.447715,11.947715,4,12.5,4C12.5,4,17.5,4,17.5,4C18.05228,4,18.5,4.447715,18.5,5Z" fill-rule="evenodd" fill="#A5A5A5" fill-opacity="1"/></g><g><path d="M18.5,12.5C18.5,12.5,18.5,17.5,18.5,17.5C18.5,18.05228,18.05228,18.5,17.5,18.5C17.5,18.5,12.5,18.5,12.5,18.5C11.947715,18.5,11.5,18.05228,11.5,17.5C11.5,17.5,11.5,12.5,11.5,12.5C11.5,11.947715,11.947715,11.5,12.5,11.5C12.5,11.5,17.5,11.5,17.5,11.5C18.05228,11.5,18.5,11.947715,18.5,12.5Z" fill-rule="evenodd" fill="#A5A5A5" fill-opacity="1"/></g><g><path d="M18.5,20C18.5,20,18.5,25,18.5,25C18.5,25.55228,18.05228,26,17.5,26C17.5,26,12.5,26,12.5,26C11.947715,26,11.5,25.55228,11.5,25C11.5,25,11.5,20,11.5,20C11.5,19.447715,11.947715,19,12.5,19C12.5,19,17.5,19,17.5,19C18.05228,19,18.5,19.447715,18.5,20Z" fill-rule="evenodd" fill="#A5A5A5" fill-opacity="1"/></g><g><path d="M26,5C26,5,26,10,26,10C26,10.55228,25.55228,11,25,11C25,11,20,11,20,11C19.447715,11,19,10.55228,19,10C19,10,19,5,19,5C19,4.447715,19.447715,4,20,4C20,4,25,4,25,4C25.55228,4,26,4.447715,26,5Z" fill-rule="evenodd" fill="#A5A5A5" fill-opacity="1"/></g><g><path d="M26,12.5C26,12.5,26,17.5,26,17.5C26,18.05228,25.55228,18.5,25,18.5C25,18.5,20,18.5,20,18.5C19.447715,18.5,19,18.05228,19,17.5C19,17.5,19,12.5,19,12.5C19,11.947715,19.447715,11.5,20,11.5C20,11.5,25,11.5,25,11.5C25.55228,11.5,26,11.947715,26,12.5Z" fill-rule="evenodd" fill="#A5A5A5" fill-opacity="1"/></g><g><path d="M26,20C26,20,26,25,26,25C26,25.55228,25.55228,26,25,26C25,26,20,26,20,26C19.447715,26,19,25.55228,19,25C19,25,19,20,19,20C19,19.447715,19.447715,19,20,19C20,19,25,19,25,19C25.55228,19,26,19.447715,26,20Z" fill-rule="evenodd" fill="#A5A5A5" fill-opacity="1"/></g></g></g></svg>