<svg xmlns="http://www.w3.org/2000/svg" xmlns:xlink="http://www.w3.org/1999/xlink" fill="none" version="1.1" width="30" height="30" viewBox="0 0 30 30"><defs><clipPath id="master_svg0_211_0232"><rect x="0" y="0" width="30" height="30" rx="0"/></clipPath></defs><g clip-path="url(#master_svg0_211_0232)"><g><path d="M3.75,23.75L3.75,5C3.75,4.3096440000000005,4.30964,3.75,5,3.75L16.25,3.75C16.9404,3.75,17.5,4.3096440000000005,17.5,5L17.5,15L20,15C21.3807,15,22.5,16.119300000000003,22.5,17.5L22.5,22.5C22.5,23.1904,23.0596,23.75,23.75,23.75C24.4404,23.75,25,23.1904,25,22.5L25,13.75L22.5,13.75C21.8096,13.75,21.25,13.19036,21.25,12.5L21.25,8.0175L19.1787,5.94625L20.9462,4.17875L27.1337,10.36625C27.3685,10.600380000000001,27.5003,10.918420000000001,27.5,11.25L27.5,22.5C27.5,24.5711,25.8211,26.25,23.75,26.25C21.6789,26.25,20,24.5711,20,22.5L20,17.5L17.5,17.5L17.5,23.75L18.75,23.75L18.75,26.25L2.5,26.25L2.5,23.75L3.75,23.75ZM11.25,13.75L11.25,8.75L6.25,16.25L10,16.25L10,21.25L15,13.75L11.25,13.75Z" fill="#E0933C" fill-opacity="1"/></g></g></svg>