<svg xmlns="http://www.w3.org/2000/svg" xmlns:xlink="http://www.w3.org/1999/xlink" fill="none" version="1.1" width="30" height="30" viewBox="0 0 30 30"><defs><clipPath id="master_svg0_137_7493"><rect x="2" y="2" width="26.000001907348633" height="26" rx="0"/></clipPath></defs><g><g></g><g clip-path="url(#master_svg0_137_7493)"><g><path d="M4.26753094140625,8.21924C4.55337694140625,7.72561,5.18488494140625,7.55657,5.67911494140625,7.84138L15.09196494140625,13.2667L24.41186494140625,7.89684C24.90596494140625,7.61179,25.53756494140625,7.7809,25.82316494140625,8.274709999999999C25.82756494140625,8.28088,25.83106494140625,8.28767,25.83336494140625,8.29486C25.74306494140625,8.11303,25.60066494140625,7.96219,25.42436494140625,7.86153L15.65766494140625,2.231892C15.46916494140625,2.0794529,15.23336494140625,1.99747462,14.99096494140625,2.0000593166C14.74866494140625,1.99752472,14.51296494140625,2.0795002,14.32456494140625,2.231892L4.65384694140625,7.80346C4.40836694140625,7.94448,4.23203654140625,8.18063,4.16656494140625,8.45606C4.18931484140625,8.37806,4.22203154140625,8.297460000000001,4.26753094140625,8.21924Z" fill="#A5A5A5" fill-opacity="1"/></g><g><path d="M25.71056494140625,8.066726684570312C25.95106494140625,8.584991684570312,25.77816494140625,9.224806684570312,25.30496494140625,9.519036684570313L16.14386494140625,15.220396684570312L16.14386494140625,26.801226684570313C16.14386494140625,27.411526684570312,15.68586494140625,27.908326684570312,15.11746494140625,27.908326684570312C14.55156494140625,27.908326684570312,14.09094494140625,27.414126684570313,14.09094494140625,26.801226684570313L14.09094494140625,15.317886684570311L4.67962294140625,9.459676684570312C4.38170694140625,9.273336684570312,4.20122434140625,8.952240684570313,4.17132444140625,8.606658684570313L4.17132444140625,20.649226684570312C4.13384124140625,21.06752668457031,4.31909094140625,21.488726684570313,4.67962294140625,21.712826684570313L14.37886494140625,27.75152668457031C14.56096494140625,27.913026684570312,14.79636494140625,28.00152668457031,15.03976494140625,28.00002668457031C15.28316494140625,28.00162668457031,15.51866494140625,27.913026684570312,15.70076494140625,27.75152668457031L25.11466494140625,21.89092668457031C25.53026494140625,21.75052668457031,25.83316494140625,21.332126684570312,25.83316494140625,20.83552668457031L25.83316494140625,8.590408684570313C25.83316494140625,8.398659684570312,25.78806494140625,8.220559684570313,25.71056494140625,8.066726684570312Z" fill="#A5A5A5" fill-opacity="1"/></g></g></g></svg>