<svg xmlns="http://www.w3.org/2000/svg" xmlns:xlink="http://www.w3.org/1999/xlink" fill="none" version="1.1" width="19.200000762939453" height="19.200000762939453" viewBox="0 0 19.200000762939453 19.200000762939453"><defs><clipPath id="master_svg0_251_04498"><rect x="0" y="0" width="19.200000762939453" height="19.200000762939453" rx="0"/></clipPath></defs><g clip-path="url(#master_svg0_251_04498)"><g><path d="M16.75524970703125,2.26584C16.39754970703125,2.26584,16.15904970703125,2.50435,16.15904970703125,2.86211L16.15904970703125,16.6957C16.15904970703125,17.2919,15.56274970703125,17.8882,14.96644970703125,17.8882L4.47204970703125,17.8882C3.75651970703125,17.8882,2.92173970703125,17.2919,2.92173970703125,16.6957L2.92173970703125,15.3839C2.92173970703125,14.7876,3.6372697070312503,14.4298,4.3527997070312505,14.4298L14.37014970703125,14.4298C14.72794970703125,14.4298,14.96644970703125,14.1913,14.96644970703125,13.8335L14.96644970703125,2.14658C14.96644970703125,0.834783,14.01244970703125,0,12.58134970703125,0L4.47204970703125,0C3.16024970703125,0,1.84844970703125,0.715528,1.84844970703125,2.14658L1.84844970703125,16.8149Q1.84844970703125,16.8149,1.84844970703125,16.9342C1.84844970703125,17.0534,1.84844970703125,17.0534,1.84844970703125,17.1727C1.9677047070312499,18.246,3.0409997070312498,19.0807,4.11428970703125,19.2L4.23353970703125,19.2Q4.23353970703125,19.2,4.3527997070312505,19.2L14.96644970703125,19.2C16.27824970703125,19.2,17.35154970703125,18.1267,17.35154970703125,16.9342L17.35154970703125,2.86211C17.35154970703125,2.6236,17.11304970703125,2.26584,16.75524970703125,2.26584ZM14.48944970703125,15.6224L4.7105597070312495,15.6224C4.3527997070312505,15.6224,4.11428970703125,15.8609,4.11428970703125,16.2186C4.11428970703125,16.5764,4.3527997070312505,16.8149,4.7105597070312495,16.8149L14.48944970703125,16.8149C14.84724970703125,16.8149,15.08574970703125,16.5764,15.08574970703125,16.2186C15.08574970703125,15.8609,14.84724970703125,15.6224,14.48944970703125,15.6224Z" fill="#FFFFFF" fill-opacity="1"/></g></g></svg>