<svg xmlns="http://www.w3.org/2000/svg" xmlns:xlink="http://www.w3.org/1999/xlink" fill="none" version="1.1" width="24.000003814697266" height="24" viewBox="0 0 24.000003814697266 24"><defs><clipPath id="master_svg0_251_04508"><rect x="0" y="0" width="24.000003814697266" height="24" rx="0"/></clipPath></defs><g clip-path="url(#master_svg0_251_04508)"><g><path d="M11.9906,1.78826995849575C6.19453,1.78592621296875,1.5,6.47811904296875,1.5,12.26956904296875C1.5,16.84916904296875,4.43672,20.74216904296875,8.52656,22.17186904296875C9.07734,22.31016904296875,8.99297,21.91876904296875,8.99297,21.65156904296875L8.99297,19.83516904296875C5.8125,20.20776904296875,5.68359,18.10306904296875,5.47031,17.75156904296875C5.03906,17.01556904296875,4.01953,16.82806904296875,4.32422,16.476569042968748C5.048439999999999,16.10386904296875,5.78672,16.57026904296875,6.64219,17.83356904296875C7.26094,18.74996904296875,8.467970000000001,18.59526904296875,9.07969,18.44296904296875C9.213280000000001,17.89216904296875,9.499220000000001,17.39996904296875,9.89297,17.01796904296875C6.59766,16.42736904296875,5.22422,14.41636904296875,5.22422,12.02576904296875C5.22422,10.86561904296875,5.60625,9.79920904296875,6.35625,8.939049042968751C5.87813,7.52107904296875,6.40078,6.30701904296875,6.47109,6.12654904296875C7.83281,6.00467904296875,9.24844,7.10154904296875,9.35859,7.18826904296875C10.13203,6.97967904296875,11.01562,6.86951904296875,12.0047,6.86951904296875C12.9984,6.86951904296875,13.8844,6.98435904296875,14.6648,7.19529904296875C14.9297,6.99373904296875,16.2422,6.05154904296875,17.5078,6.16639904296875C17.5758,6.34686904296875,18.0867,7.53279904296875,17.6367,8.93201904296875C18.3961,9.79451904296875,18.7828,10.87029904296875,18.7828,12.03276904296875C18.7828,14.42806904296875,17.4,16.441369042968752,14.0953,17.02266904296875C14.6461,17.566369042968752,14.9883,18.32106904296875,14.9883,19.15546904296875L14.9883,21.79216904296875C15.007,22.00306904296875,14.9883,22.21166904296875,15.3398,22.21166904296875C19.4906,20.81246904296875,22.4789,16.891369042968748,22.4789,12.27186904296875C22.4789,6.47811904296875,17.782,1.78826995849575,11.9906,1.78826995849575Z" fill="#FFFFFF" fill-opacity="1"/></g></g></svg>