<svg xmlns="http://www.w3.org/2000/svg" xmlns:xlink="http://www.w3.org/1999/xlink" fill="none" version="1.1" width="60" height="60" viewBox="0 0 60 60"><defs><clipPath id="master_svg0_266_1093"><rect x="4" y="4" width="52.000003814697266" height="52" rx="0"/></clipPath></defs><g><g></g><g clip-path="url(#master_svg0_266_1093)"><g><path d="M30,4C15.6406,3.999999373587,4,15.6406,4,30C4,44.3594,15.6406,56,30,56C44.3594,56,56,44.3594,56,30C56,15.6406,44.3594,3.999999373587,30,4ZM21.6006,39.1602L18.82,39.1602L18.82,18.102899999999998L21.6061,18.102899999999998L21.6061,39.1602L21.6006,39.1602ZM43.3613,32.7669C42.9891,34.004000000000005,42.5074,35.0248,41.9244,35.8322C41.405,36.579,40.7562,37.2269,40.0086,37.7453C39.3135,38.2105,38.476,38.5608,37.4935,38.8017C36.5137,39.0398,35.3861,39.1575,34.1107,39.1575L26.5133,39.1575L26.5133,18.1057L33.7659,18.1057C35.4053,18.1057,36.6533,18.206899999999997,37.5154,18.4067C38.7196,18.6859,39.7514,19.189500000000002,40.6025,19.9147C41.7137,20.8535,42.5457,22.0522,43.0931,23.5137C43.6459,24.9752,43.9196,26.6419,43.9196,28.5194C43.9196,30.1177,43.7335,31.5354,43.3613,32.7697L43.3613,32.7669ZM37.3293,21.0232C36.5821,20.7358,35.3806,20.5907,33.7248,20.5907L29.2994,20.5907L29.2994,36.6779L33.796,36.6779C35.1836,36.6779,36.2728,36.5493,37.0638,36.2893C37.852,36.032,38.4815,35.668,38.9522,35.1973C39.6118,34.5377,40.129,33.6482,40.4958,32.5343C40.8625,31.4177,41.0486,30.0657,41.0486,28.4756C41.0486,26.2752,40.6874,24.581,39.9648,23.3987C39.2423,22.2164,38.3638,21.4255,37.3293,21.0232Z" fill="#E9983D" fill-opacity="1"/></g></g></g></svg>