<svg xmlns="http://www.w3.org/2000/svg" xmlns:xlink="http://www.w3.org/1999/xlink" fill="none" version="1.1" width="30" height="30" viewBox="0 0 30 30"><defs><clipPath id="master_svg0_137_7498"><rect x="4" y="4" width="23" height="23" rx="0"/></clipPath></defs><g><g></g><g clip-path="url(#master_svg0_137_7498)"><g><path d="M26.2812,19.668756103515626L4.71875,19.668756103515626C4.2875,19.668756103515626,4,19.956256103515624,4,20.387556103515625L4,25.131256103515625C4,25.562556103515625,4.2875,25.850056103515627,4.71875,25.850056103515627L26.1375,25.850056103515627C26.5688,25.850056103515627,26.8563,25.562556103515625,26.8563,25.131256103515625L26.8563,20.387556103515625C27,19.956256103515624,26.7125,19.668756103515626,26.2812,19.668756103515626ZM7.45,24.412556103515627L6.15625,24.412556103515627L6.15625,21.106256103515626L7.45,21.106256103515626L7.45,24.412556103515627ZM10.325,24.412556103515627L9.03125,24.412556103515627L9.03125,21.106256103515626L10.325,21.106256103515626L10.325,24.412556103515627ZM22.975,24.268756103515624C22.1125,24.268756103515624,21.3937,23.550056103515626,21.3937,22.687456103515625C21.3937,21.825056103515625,22.1125,21.249956103515625,22.975,21.249956103515625C23.8375,21.249956103515625,24.5562,21.968756103515624,24.5562,22.687456103515625C24.5562,23.693756103515625,23.8375,24.268756103515624,22.975,24.268756103515624ZM26.2812,12.337506103515626L4.71875,12.337506103515626C4.2875,12.337506103515626,4,12.625006103515625,4,13.056256103515626L4,17.800056103515622C4,18.231256103515626,4.2875,18.518756103515624,4.71875,18.518756103515624L26.1375,18.518756103515624C26.5688,18.518756103515624,26.8563,18.231256103515626,26.8563,17.800056103515622L26.8563,13.056256103515626C27,12.625006103515625,26.7125,12.337506103515626,26.2812,12.337506103515626ZM7.45,17.081256103515624L6.15625,17.081256103515624L6.15625,13.775006103515626L7.45,13.775006103515626L7.45,17.081256103515624ZM10.325,17.081256103515624L9.03125,17.081256103515624L9.03125,13.775006103515626L10.325,13.775006103515626L10.325,17.081256103515624ZM22.975,16.937556103515625C22.1125,16.937556103515625,21.3937,16.218756103515624,21.3937,15.356256103515625C21.3937,14.493756103515626,22.1125,13.918756103515625,22.975,13.918756103515625C23.8375,13.918756103515625,24.5562,14.637506103515625,24.5562,15.356256103515625C24.5562,16.075056103515625,23.8375,16.937556103515625,22.975,16.937556103515625ZM26.2812,5.006256103515625L4.71875,5.006256103515625C4.2875,5.006256103515625,4,5.437506103515625,4,5.868756103515625L4,10.612506103515624C4,11.043756103515625,4.2875,11.331256103515624,4.71875,11.331256103515624L26.1375,11.331256103515624C26.5688,11.331256103515624,26.8563,11.043756103515625,26.8563,10.612506103515624L26.8563,5.725006103515625C27,5.437506103515625,26.7125,5.006256103515625,26.2812,5.006256103515625ZM7.45,9.750006103515625L6.15625,9.750006103515625L6.15625,6.443756103515625L7.45,6.443756103515625L7.45,9.750006103515625ZM10.325,9.750006103515625L9.03125,9.750006103515625L9.03125,6.443756103515625L10.325,6.443756103515625L10.325,9.750006103515625ZM22.975,9.606256103515625C22.1125,9.606256103515625,21.3937,8.887506103515625,21.3937,8.025006103515626C21.3937,7.162506103515625,22.1125,6.587506103515625,22.975,6.587506103515625C23.8375,6.587506103515625,24.5562,7.306256103515625,24.5562,8.025006103515626C24.5562,8.743756103515626,23.8375,9.606256103515625,22.975,9.606256103515625Z" fill="#A5A5A5" fill-opacity="1"/></g></g></g></svg>